<svg width="600" height="216" viewBox="0 0 600 216" fill="none" xmlns="http://www.w3.org/2000/svg">
<rect x="0.5" y="0.5" width="414" height="45" fill="white"/>
<path d="M62.5805 33V27.7625V27.7375L59.868 13H61.568L62.5305 18.65L63.2055 24.3625H63.6555L64.3055 18.65L65.268 13H66.993L64.2555 27.75V27.775V33H62.5805ZM72.8936 33.175C71.7352 33.175 70.9019 32.925 70.3936 32.425C69.8936 31.9167 69.6311 31.0833 69.6061 29.925C69.5811 28.7333 69.5602 27.5667 69.5436 26.425C69.5352 25.275 69.5311 24.1333 69.5311 23C69.5311 21.8667 69.5352 20.7292 69.5436 19.5875C69.5602 18.4458 69.5811 17.275 69.6061 16.075C69.6311 14.9167 69.8936 14.0875 70.3936 13.5875C70.9019 13.0792 71.7352 12.825 72.8936 12.825C74.0602 12.825 74.8936 13.0792 75.3936 13.5875C75.9019 14.0875 76.1644 14.9167 76.1811 16.075C76.2061 17.275 76.2227 18.45 76.2311 19.6C76.2477 20.7417 76.2561 21.8792 76.2561 23.0125C76.2561 24.1375 76.2477 25.275 76.2311 26.425C76.2227 27.5667 76.2061 28.7333 76.1811 29.925C76.1644 31.0833 75.9019 31.9167 75.3936 32.425C74.8936 32.925 74.0602 33.175 72.8936 33.175ZM72.8936 31.75C73.4769 31.75 73.8936 31.6333 74.1436 31.4C74.3936 31.1583 74.5227 30.75 74.5311 30.175C74.5644 28.95 74.5852 27.7375 74.5936 26.5375C74.6102 25.3292 74.6186 24.1333 74.6186 22.95C74.6186 21.7583 74.6102 20.5708 74.5936 19.3875C74.5769 18.1958 74.5561 17.0083 74.5311 15.825C74.5227 15.25 74.3894 14.8417 74.1311 14.6C73.8811 14.3583 73.4686 14.2375 72.8936 14.2375C72.3269 14.2375 71.9186 14.3583 71.6686 14.6C71.4186 14.8417 71.2852 15.25 71.2686 15.825C71.2352 17.0083 71.2102 18.1958 71.1936 19.3875C71.1769 20.5708 71.1686 21.7583 71.1686 22.95C71.1769 24.1333 71.1894 25.3292 71.2061 26.5375C71.2227 27.7375 71.2436 28.95 71.2686 30.175C71.2852 30.75 71.4186 31.1583 71.6686 31.4C71.9186 31.6333 72.3269 31.75 72.8936 31.75ZM83.0279 33.175C81.8779 33.175 81.0529 32.925 80.5529 32.425C80.0529 31.9167 79.7946 31.0833 79.7779 29.925C79.7446 27.1083 79.7279 24.2875 79.7279 21.4625C79.7279 18.6375 79.7446 15.8167 79.7779 13H81.4279C81.4113 14.875 81.3946 16.7792 81.3779 18.7125C81.3696 20.6375 81.3696 22.5625 81.3779 24.4875C81.3863 26.4042 81.3988 28.3 81.4154 30.175C81.4154 30.725 81.5488 31.125 81.8154 31.375C82.0821 31.625 82.4863 31.75 83.0279 31.75C83.5863 31.75 83.9904 31.625 84.2404 31.375C84.4988 31.125 84.6279 30.725 84.6279 30.175C84.6446 28.3 84.6571 26.4042 84.6654 24.4875C84.6738 22.5625 84.6738 20.6375 84.6654 18.7125C84.6654 16.7792 84.6529 14.875 84.6279 13H86.2904C86.3238 15.8167 86.3404 18.6375 86.3404 21.4625C86.3404 24.2875 86.3238 27.1083 86.2904 29.925C86.2738 31.0833 86.0154 31.9167 85.5154 32.425C85.0154 32.925 84.1863 33.175 83.0279 33.175ZM89.992 33V13H93.0295C94.1628 13 94.9837 13.25 95.492 13.75C96.0003 14.25 96.2795 15.0792 96.3295 16.2375C96.3545 16.9792 96.3712 17.6833 96.3795 18.35C96.3878 19.0083 96.3878 19.65 96.3795 20.275C96.3712 20.8917 96.3545 21.5083 96.3295 22.125C96.3045 22.9333 96.1628 23.5792 95.9045 24.0625C95.6462 24.5375 95.2462 24.875 94.7045 25.075L96.717 33H94.942L93.1045 25.3625H91.642V33H89.992ZM91.642 23.8625H93.017C93.5837 23.8625 93.992 23.7292 94.242 23.4625C94.5003 23.1958 94.642 22.775 94.667 22.2C94.692 21.5417 94.7087 20.875 94.717 20.2C94.7253 19.5167 94.7253 18.8375 94.717 18.1625C94.7087 17.4875 94.692 16.8208 94.667 16.1625C94.642 15.5875 94.5045 15.1667 94.2545 14.9C94.0045 14.6333 93.5962 14.5 93.0295 14.5H91.642V23.8625ZM106.384 33V13H109.421L110.621 21.175L111.421 31.4125H111.896L112.671 21.175L113.896 13H116.934V33H115.259V27.175L115.559 14.5H114.996L113.659 27.25L112.759 32.9125H110.534L109.659 27.25L108.321 14.5H107.784L108.046 27.175V33H106.384ZM124.017 33.175C122.858 33.175 122.025 32.925 121.517 32.425C121.017 31.9167 120.754 31.0833 120.729 29.925C120.704 28.7333 120.683 27.5667 120.667 26.425C120.658 25.275 120.654 24.1333 120.654 23C120.654 21.8667 120.658 20.7292 120.667 19.5875C120.683 18.4458 120.704 17.275 120.729 16.075C120.754 14.9167 121.017 14.0875 121.517 13.5875C122.025 13.0792 122.858 12.825 124.017 12.825C125.183 12.825 126.017 13.0792 126.517 13.5875C127.025 14.0875 127.287 14.9167 127.304 16.075C127.329 17.275 127.346 18.45 127.354 19.6C127.371 20.7417 127.379 21.8792 127.379 23.0125C127.379 24.1375 127.371 25.275 127.354 26.425C127.346 27.5667 127.329 28.7333 127.304 29.925C127.287 31.0833 127.025 31.9167 126.517 32.425C126.017 32.925 125.183 33.175 124.017 33.175ZM124.017 31.75C124.6 31.75 125.017 31.6333 125.267 31.4C125.517 31.1583 125.646 30.75 125.654 30.175C125.687 28.95 125.708 27.7375 125.717 26.5375C125.733 25.3292 125.742 24.1333 125.742 22.95C125.742 21.7583 125.733 20.5708 125.717 19.3875C125.7 18.1958 125.679 17.0083 125.654 15.825C125.646 15.25 125.512 14.8417 125.254 14.6C125.004 14.3583 124.592 14.2375 124.017 14.2375C123.45 14.2375 123.042 14.3583 122.792 14.6C122.542 14.8417 122.408 15.25 122.392 15.825C122.358 17.0083 122.333 18.1958 122.317 19.3875C122.3 20.5708 122.292 21.7583 122.292 22.95C122.3 24.1333 122.312 25.3292 122.329 26.5375C122.346 27.7375 122.367 28.95 122.392 30.175C122.408 30.75 122.542 31.1583 122.792 31.4C123.042 31.6333 123.45 31.75 124.017 31.75ZM131.076 33V13H133.901L135.013 19.3375L136.713 31.5H137.276L136.988 20.075L136.876 13H138.501V33H135.576L134.326 25.825L132.901 14.5H132.301L132.576 25.5125L132.676 33H131.076ZM143.759 33V14.5H141.209V13H147.959V14.5H145.421V33H143.759ZM150.666 33V13H152.316V22.1875H155.516V13H157.166V33H155.516V23.675H152.316V33H150.666ZM161.071 33V13H162.721V31.5H166.721V33H161.071ZM170.032 33V27.7625V27.7375L167.319 13H169.019L169.982 18.65L170.657 24.3625H171.107L171.757 18.65L172.719 13H174.444L171.707 27.75V27.775V33H170.032ZM183.962 33V13H186.787L187.899 19.3375L189.599 31.5H190.162L189.874 20.075L189.762 13H191.387V33H188.462L187.212 25.825L185.787 14.5H185.187L185.462 25.5125L185.562 33H183.962ZM195.295 33V13H200.932V14.5H196.945V22.1875H200.682V23.675H196.945V31.5H200.932V33H195.295ZM204.939 33L203.576 13H205.251L205.689 20.525L206.226 31.5H206.776L207.301 20.525L207.976 13.125H210.839L211.539 20.525L212.014 31.5H212.564L213.126 20.525L213.589 13H215.239L213.851 33H210.839L210.276 26.4375L209.714 14.5875H209.089L208.514 26.4375L207.951 33H204.939ZM221.607 33.175C220.457 33.175 219.628 32.9208 219.12 32.4125C218.62 31.8958 218.345 31.05 218.295 29.875C218.287 29.3583 218.282 28.8875 218.282 28.4625C218.282 28.0375 218.287 27.6125 218.295 27.1875C218.303 26.7542 218.316 26.2792 218.332 25.7625H219.92C219.887 26.5042 219.87 27.2417 219.87 27.975C219.87 28.7083 219.887 29.425 219.92 30.125C219.945 30.6917 220.087 31.1042 220.345 31.3625C220.603 31.6208 221.02 31.75 221.595 31.75C222.145 31.75 222.541 31.6208 222.782 31.3625C223.024 31.1042 223.162 30.6917 223.195 30.125C223.22 29.6583 223.237 29.2417 223.245 28.875C223.253 28.5 223.253 28.1208 223.245 27.7375C223.237 27.3458 223.22 26.8875 223.195 26.3625C223.178 25.7458 223.091 25.2292 222.932 24.8125C222.782 24.3875 222.466 24.1125 221.982 23.9875L220.682 23.65C220.041 23.4917 219.549 23.2542 219.207 22.9375C218.866 22.6125 218.628 22.1875 218.495 21.6625C218.37 21.1375 218.295 20.4917 218.27 19.725C218.262 19.1833 218.257 18.5917 218.257 17.95C218.266 17.3083 218.274 16.6875 218.282 16.0875C218.307 15.3125 218.428 14.6875 218.645 14.2125C218.862 13.7292 219.207 13.3792 219.682 13.1625C220.166 12.9375 220.803 12.825 221.595 12.825C222.695 12.825 223.491 13.0792 223.982 13.5875C224.474 14.0958 224.741 14.9375 224.782 16.1125C224.799 16.5708 224.803 17.1375 224.795 17.8125C224.795 18.4792 224.782 19.1875 224.757 19.9375H223.157C223.182 19.2542 223.195 18.575 223.195 17.9C223.203 17.2167 223.195 16.5375 223.17 15.8625C223.153 15.2958 223.016 14.8833 222.757 14.625C222.507 14.3667 222.112 14.2375 221.57 14.2375C221.003 14.2375 220.599 14.3667 220.357 14.625C220.116 14.8833 219.978 15.2958 219.945 15.8625C219.912 16.4958 219.895 17.1375 219.895 17.7875C219.903 18.4292 219.92 19.075 219.945 19.725C219.962 20.4667 220.049 21.025 220.207 21.4C220.366 21.775 220.695 22.0208 221.195 22.1375L222.42 22.4375C223.078 22.5875 223.578 22.8292 223.92 23.1625C224.27 23.4958 224.512 23.9292 224.645 24.4625C224.778 24.9875 224.853 25.6208 224.87 26.3625C224.887 26.8792 224.895 27.3167 224.895 27.675C224.895 28.025 224.891 28.3667 224.882 28.7C224.882 29.0333 224.874 29.425 224.857 29.875C224.816 31.05 224.545 31.8958 224.045 32.4125C223.545 32.9208 222.732 33.175 221.607 33.175ZM228.415 33V13H234.052V14.5H230.065V22.1875H233.802V23.675H230.065V33H228.415ZM237.038 33V13H242.675V14.5H238.688V22.1875H242.425V23.675H238.688V31.5H242.675V33H237.038ZM245.832 33V13H251.469V14.5H247.482V22.1875H251.219V23.675H247.482V31.5H251.469V33H245.832ZM254.626 33V13H257.826C258.976 13 259.805 13.2583 260.313 13.775C260.83 14.2917 261.097 15.1417 261.113 16.325C261.138 17.9083 261.155 19.4167 261.163 20.85C261.172 22.2833 261.172 23.7167 261.163 25.15C261.155 26.575 261.138 28.0792 261.113 29.6625C261.097 30.8542 260.83 31.7083 260.313 32.225C259.797 32.7417 258.959 33 257.801 33H254.626ZM256.276 31.5H257.801C258.376 31.5 258.792 31.3667 259.051 31.1C259.309 30.825 259.442 30.4 259.451 29.825C259.476 28.6833 259.492 27.5458 259.501 26.4125C259.509 25.2708 259.513 24.1333 259.513 23C259.513 21.8583 259.509 20.7208 259.501 19.5875C259.492 18.4458 259.476 17.3042 259.451 16.1625C259.442 15.5875 259.309 15.1667 259.051 14.9C258.792 14.6333 258.384 14.5 257.826 14.5H256.276V31.5ZM271.31 33V13H276.948V14.5H272.96V22.1875H276.698V23.675H272.96V33H271.31ZM279.933 33V13H282.971C284.104 13 284.925 13.25 285.433 13.75C285.942 14.25 286.221 15.0792 286.271 16.2375C286.296 16.9792 286.313 17.6833 286.321 18.35C286.329 19.0083 286.329 19.65 286.321 20.275C286.313 20.8917 286.296 21.5083 286.271 22.125C286.246 22.9333 286.104 23.5792 285.846 24.0625C285.588 24.5375 285.188 24.875 284.646 25.075L286.658 33H284.883L283.046 25.3625H281.583V33H279.933ZM281.583 23.8625H282.958C283.525 23.8625 283.933 23.7292 284.183 23.4625C284.442 23.1958 284.583 22.775 284.608 22.2C284.633 21.5417 284.65 20.875 284.658 20.2C284.667 19.5167 284.667 18.8375 284.658 18.1625C284.65 17.4875 284.633 16.8208 284.608 16.1625C284.583 15.5875 284.446 15.1667 284.196 14.9C283.946 14.6333 283.538 14.5 282.971 14.5H281.583V23.8625ZM293.074 33.175C291.916 33.175 291.083 32.925 290.574 32.425C290.074 31.9167 289.812 31.0833 289.787 29.925C289.762 28.7333 289.741 27.5667 289.724 26.425C289.716 25.275 289.712 24.1333 289.712 23C289.712 21.8667 289.716 20.7292 289.724 19.5875C289.741 18.4458 289.762 17.275 289.787 16.075C289.812 14.9167 290.074 14.0875 290.574 13.5875C291.083 13.0792 291.916 12.825 293.074 12.825C294.241 12.825 295.074 13.0792 295.574 13.5875C296.083 14.0875 296.345 14.9167 296.362 16.075C296.387 17.275 296.403 18.45 296.412 19.6C296.428 20.7417 296.437 21.8792 296.437 23.0125C296.437 24.1375 296.428 25.275 296.412 26.425C296.403 27.5667 296.387 28.7333 296.362 29.925C296.345 31.0833 296.083 31.9167 295.574 32.425C295.074 32.925 294.241 33.175 293.074 33.175ZM293.074 31.75C293.658 31.75 294.074 31.6333 294.324 31.4C294.574 31.1583 294.703 30.75 294.712 30.175C294.745 28.95 294.766 27.7375 294.774 26.5375C294.791 25.3292 294.799 24.1333 294.799 22.95C294.799 21.7583 294.791 20.5708 294.774 19.3875C294.758 18.1958 294.737 17.0083 294.712 15.825C294.703 15.25 294.57 14.8417 294.312 14.6C294.062 14.3583 293.649 14.2375 293.074 14.2375C292.508 14.2375 292.099 14.3583 291.849 14.6C291.599 14.8417 291.466 15.25 291.449 15.825C291.416 17.0083 291.391 18.1958 291.374 19.3875C291.358 20.5708 291.349 21.7583 291.349 22.95C291.358 24.1333 291.37 25.3292 291.387 26.5375C291.403 27.7375 291.424 28.95 291.449 30.175C291.466 30.75 291.599 31.1583 291.849 31.4C292.099 31.6333 292.508 31.75 293.074 31.75ZM300.134 33V13H303.171L304.371 21.175L305.171 31.4125H305.646L306.421 21.175L307.646 13H310.684V33H309.009V27.175L309.309 14.5H308.746L307.409 27.25L306.509 32.9125H304.284L303.409 27.25L302.071 14.5H301.534L301.796 27.175V33H300.134ZM322.123 33V14.5H319.573V13H326.323V14.5H323.786V33H322.123ZM329.03 33V13H334.668V14.5H330.68V22.1875H334.418V23.675H330.68V31.5H334.668V33H329.03ZM340.937 33.1875C339.795 33.1875 338.974 32.9333 338.474 32.425C337.982 31.9083 337.724 31.0667 337.699 29.9C337.674 28.725 337.657 27.5667 337.649 26.425C337.641 25.2833 337.637 24.1458 337.637 23.0125C337.637 21.8792 337.641 20.7417 337.649 19.6C337.657 18.45 337.674 17.2875 337.699 16.1125C337.716 15.0292 337.974 14.2167 338.474 13.675C338.982 13.125 339.795 12.85 340.912 12.85C342.053 12.85 342.878 13.1042 343.387 13.6125C343.895 14.1125 344.17 14.95 344.212 16.125C344.22 16.4417 344.224 16.8417 344.224 17.325C344.224 17.8 344.22 18.2792 344.212 18.7625C344.203 19.2375 344.195 19.6333 344.187 19.95H342.537C342.545 19.525 342.549 19.0792 342.549 18.6125C342.557 18.1458 342.562 17.6792 342.562 17.2125C342.562 16.7375 342.557 16.2917 342.549 15.875C342.541 15.2833 342.407 14.8667 342.149 14.625C341.899 14.375 341.487 14.25 340.912 14.25C340.378 14.25 339.991 14.375 339.749 14.625C339.507 14.8667 339.378 15.2833 339.362 15.875C339.337 17.1083 339.316 18.3167 339.299 19.5C339.291 20.675 339.287 21.8458 339.287 23.0125C339.287 24.1708 339.291 25.3417 339.299 26.525C339.316 27.7 339.337 28.9083 339.362 30.15C339.378 30.725 339.507 31.1417 339.749 31.4C339.999 31.65 340.395 31.775 340.937 31.775C341.537 31.775 341.97 31.65 342.237 31.4C342.503 31.1417 342.641 30.725 342.649 30.15C342.657 29.6917 342.662 29.2125 342.662 28.7125C342.662 28.2125 342.657 27.7125 342.649 27.2125C342.641 26.7125 342.632 26.2375 342.624 25.7875H344.287C344.312 26.4958 344.324 27.1833 344.324 27.85C344.332 28.5083 344.328 29.1917 344.312 29.9C344.27 31.0667 343.987 31.9083 343.462 32.425C342.945 32.9333 342.103 33.1875 340.937 33.1875ZM347.814 33V13H349.464V22.1875H352.664V13H354.314V33H352.664V23.675H349.464V33H347.814Z" fill="black"/>
<rect x="0.5" y="0.5" width="414" height="45" stroke="black"/>
<rect x="430.5" y="0.5" width="169" height="45" fill="white"/>
<path d="M459.943 33.175C458.793 33.175 457.964 32.9208 457.456 32.4125C456.956 31.8958 456.681 31.05 456.631 29.875C456.623 29.3583 456.618 28.8875 456.618 28.4625C456.618 28.0375 456.623 27.6125 456.631 27.1875C456.639 26.7542 456.652 26.2792 456.668 25.7625H458.256C458.223 26.5042 458.206 27.2417 458.206 27.975C458.206 28.7083 458.223 29.425 458.256 30.125C458.281 30.6917 458.423 31.1042 458.681 31.3625C458.939 31.6208 459.356 31.75 459.931 31.75C460.481 31.75 460.877 31.6208 461.118 31.3625C461.36 31.1042 461.498 30.6917 461.531 30.125C461.556 29.6583 461.573 29.2417 461.581 28.875C461.589 28.5 461.589 28.1208 461.581 27.7375C461.573 27.3458 461.556 26.8875 461.531 26.3625C461.514 25.7458 461.427 25.2292 461.268 24.8125C461.118 24.3875 460.802 24.1125 460.318 23.9875L459.018 23.65C458.377 23.4917 457.885 23.2542 457.543 22.9375C457.202 22.6125 456.964 22.1875 456.831 21.6625C456.706 21.1375 456.631 20.4917 456.606 19.725C456.598 19.1833 456.593 18.5917 456.593 17.95C456.602 17.3083 456.61 16.6875 456.618 16.0875C456.643 15.3125 456.764 14.6875 456.981 14.2125C457.198 13.7292 457.543 13.3792 458.018 13.1625C458.502 12.9375 459.139 12.825 459.931 12.825C461.031 12.825 461.827 13.0792 462.318 13.5875C462.81 14.0958 463.077 14.9375 463.118 16.1125C463.135 16.5708 463.139 17.1375 463.131 17.8125C463.131 18.4792 463.118 19.1875 463.093 19.9375H461.493C461.518 19.2542 461.531 18.575 461.531 17.9C461.539 17.2167 461.531 16.5375 461.506 15.8625C461.489 15.2958 461.352 14.8833 461.093 14.625C460.843 14.3667 460.448 14.2375 459.906 14.2375C459.339 14.2375 458.935 14.3667 458.693 14.625C458.452 14.8833 458.314 15.2958 458.281 15.8625C458.248 16.4958 458.231 17.1375 458.231 17.7875C458.239 18.4292 458.256 19.075 458.281 19.725C458.298 20.4667 458.385 21.025 458.543 21.4C458.702 21.775 459.031 22.0208 459.531 22.1375L460.756 22.4375C461.414 22.5875 461.914 22.8292 462.256 23.1625C462.606 23.4958 462.848 23.9292 462.981 24.4625C463.114 24.9875 463.189 25.6208 463.206 26.3625C463.223 26.8792 463.231 27.3167 463.231 27.675C463.231 28.025 463.227 28.3667 463.218 28.7C463.218 29.0333 463.21 29.425 463.193 29.875C463.152 31.05 462.881 31.8958 462.381 32.4125C461.881 32.9208 461.068 33.175 459.943 33.175ZM466.751 33V13H469.788C470.922 13 471.742 13.25 472.251 13.75C472.759 14.25 473.038 15.0792 473.088 16.2375C473.122 17.3458 473.138 18.3417 473.138 19.225C473.138 20.1083 473.122 21.0167 473.088 21.95C473.038 23.1 472.755 23.925 472.238 24.425C471.73 24.925 470.909 25.175 469.776 25.175H468.401V33H466.751ZM468.401 23.6875H469.776C470.342 23.6875 470.751 23.5542 471.001 23.2875C471.259 23.0208 471.401 22.5958 471.426 22.0125C471.451 21.3542 471.467 20.7042 471.476 20.0625C471.484 19.4125 471.484 18.7667 471.476 18.125C471.467 17.475 471.451 16.8208 471.426 16.1625C471.401 15.5875 471.263 15.1667 471.013 14.9C470.763 14.6333 470.355 14.5 469.788 14.5H468.401V23.6875ZM476.399 33V13H478.049V22.1875H481.249V13H482.899V33H481.249V23.675H478.049V33H476.399ZM494.336 33V14.5H491.786V13H498.536V14.5H495.999V33H494.336ZM501.243 33V13H506.88V14.5H502.893V22.1875H506.63V23.675H502.893V31.5H506.88V33H501.243ZM513.149 33.1875C512.008 33.1875 511.187 32.9333 510.687 32.425C510.195 31.9083 509.937 31.0667 509.912 29.9C509.887 28.725 509.87 27.5667 509.862 26.425C509.854 25.2833 509.849 24.1458 509.849 23.0125C509.849 21.8792 509.854 20.7417 509.862 19.6C509.87 18.45 509.887 17.2875 509.912 16.1125C509.929 15.0292 510.187 14.2167 510.687 13.675C511.195 13.125 512.008 12.85 513.124 12.85C514.266 12.85 515.091 13.1042 515.599 13.6125C516.108 14.1125 516.383 14.95 516.424 16.125C516.433 16.4417 516.437 16.8417 516.437 17.325C516.437 17.8 516.433 18.2792 516.424 18.7625C516.416 19.2375 516.408 19.6333 516.399 19.95H514.749C514.758 19.525 514.762 19.0792 514.762 18.6125C514.77 18.1458 514.774 17.6792 514.774 17.2125C514.774 16.7375 514.77 16.2917 514.762 15.875C514.754 15.2833 514.62 14.8667 514.362 14.625C514.112 14.375 513.699 14.25 513.124 14.25C512.591 14.25 512.204 14.375 511.962 14.625C511.72 14.8667 511.591 15.2833 511.574 15.875C511.549 17.1083 511.529 18.3167 511.512 19.5C511.504 20.675 511.499 21.8458 511.499 23.0125C511.499 24.1708 511.504 25.3417 511.512 26.525C511.529 27.7 511.549 28.9083 511.574 30.15C511.591 30.725 511.72 31.1417 511.962 31.4C512.212 31.65 512.608 31.775 513.149 31.775C513.749 31.775 514.183 31.65 514.449 31.4C514.716 31.1417 514.854 30.725 514.862 30.15C514.87 29.6917 514.874 29.2125 514.874 28.7125C514.874 28.2125 514.87 27.7125 514.862 27.2125C514.854 26.7125 514.845 26.2375 514.837 25.7875H516.499C516.524 26.4958 516.537 27.1833 516.537 27.85C516.545 28.5083 516.541 29.1917 516.524 29.9C516.483 31.0667 516.199 31.9083 515.674 32.425C515.158 32.9333 514.316 33.1875 513.149 33.1875ZM520.027 33V13H521.677V22.1875H524.877V13H526.527V33H524.877V23.675H521.677V33H520.027Z" fill="black"/>
<path d="M544.69 19.9493C543.8 20.0458 543.157 20.8456 543.254 21.7354C543.35 22.6254 544.15 23.2688 545.04 23.172C545.93 23.0755 546.573 22.2757 546.477 21.3859C546.387 20.5555 545.685 19.9399 544.868 19.9399C544.809 19.9399 544.75 19.943 544.69 19.9493Z" fill="black"/>
<path d="M570.038 35.794C569.43 35.8598 568.991 36.4057 569.057 37.0129C569.123 37.6201 569.669 38.059 570.276 37.9935C570.883 37.9273 571.322 37.3818 571.257 36.7746C571.195 36.2075 570.716 35.7874 570.158 35.7874C570.118 35.7874 570.078 35.7895 570.038 35.794Z" fill="black"/>
<path fill-rule="evenodd" clip-rule="evenodd" d="M551.131 16.9435C550.564 16.0544 550.237 15.0108 550.237 13.8922C550.237 10.6381 552.992 8 556.39 8C559.788 8 562.543 10.6381 562.543 13.8922C562.543 13.8958 562.543 13.8993 562.542 13.9029C562.542 13.9066 562.542 13.9103 562.542 13.9141C562.829 15.8381 564.165 16.2736 564.977 16.2736C565.715 16.2736 566.574 15.7514 567.562 15.0696C567.831 14.9198 568.119 14.7923 568.425 14.6917C570.925 13.8737 573.644 15.1512 574.498 17.5447C575.352 19.9383 574.018 22.542 571.519 23.3596C571.503 23.3644 571.488 23.3683 571.473 23.3721C571.463 23.3746 571.454 23.3771 571.444 23.3798C570.27 23.9445 568.156 25.2386 567.268 27.5302C566.734 28.9062 567.164 30.4275 568.158 31.5175C568.595 31.9975 568.86 32.6249 568.86 33.3122C568.86 34.8224 567.582 36.0465 566.004 36.0465C565.344 36.0465 564.736 35.8312 564.252 35.47C563.223 34.7008 562.054 34.1347 560.778 33.979C559.652 33.8407 558.313 33.7533 556.942 33.8351C554.758 33.9644 552.8 35.0959 551.349 36.7345C550.927 37.2111 550.37 37.5877 549.708 37.8044C547.751 38.445 545.621 37.4445 544.952 35.5703C544.419 34.0748 544.976 32.4741 546.217 31.5631C546.472 31.3757 546.715 31.173 546.948 30.9608C550.224 29.2981 552.47 25.9005 552.47 21.9755C552.47 20.7845 552.262 19.6426 551.882 18.5822C551.712 18.0091 551.459 17.4573 551.131 16.9435ZM554.078 14.2273C554.078 15.7663 555.326 17.0141 556.865 17.0141C558.404 17.0141 559.652 15.7663 559.652 14.2273C559.652 12.6882 558.404 11.4404 556.865 11.4404C555.326 11.4404 554.078 12.6882 554.078 14.2273Z" fill="black"/>
<rect x="430.5" y="0.5" width="169" height="45" stroke="black"/>
<rect x="0.5" y="66.5" width="191" height="149" fill="white"/>
<path d="M33.5123 187V91H41.4323V187H33.5123ZM46.7123 187V179.8H48.6923C51.3323 179.8 53.2923 179.12 54.5723 177.76C55.8523 176.4 56.5123 174.28 56.5523 171.4C56.6723 168 56.7323 164.8 56.7323 161.8C56.7323 158.8 56.6723 155.6 56.5523 152.2C56.5123 148.64 55.8323 146.1 54.5123 144.58C53.1923 143.02 51.0923 142.24 48.2123 142.24H46.7123V135.1H48.5123C51.1923 135.1 53.1723 134.32 54.4523 132.76C55.7323 131.2 56.4123 128.8 56.4923 125.56C56.6123 122.12 56.6723 118.88 56.6723 115.84C56.6723 112.8 56.6123 109.58 56.4923 106.18C56.4123 103.42 55.7323 101.4 54.4523 100.12C53.1723 98.84 51.2323 98.2 48.6323 98.2H46.7123V91H48.6323C54.0723 91 58.0523 92.2 60.5723 94.6C63.0923 97 64.3723 100.98 64.4123 106.54C64.4923 110.54 64.5323 114.04 64.5323 117.04C64.5323 120.04 64.4923 122.92 64.4123 125.68C64.2923 129.04 63.6523 131.66 62.4923 133.54C61.3723 135.42 59.6123 136.8 57.2123 137.68V139.9C59.6923 140.7 61.5123 142.06 62.6723 143.98C63.8323 145.9 64.4523 148.54 64.5323 151.9C64.6123 155.42 64.6523 158.68 64.6523 161.68C64.6523 164.68 64.6123 167.94 64.5323 171.46C64.3323 176.98 62.9923 180.96 60.5123 183.4C58.0723 185.8 54.1323 187 48.6923 187H46.7123ZM75.9342 187V91H83.8542V187H75.9342ZM103.039 187V101.86H111.019V187H103.039ZM90.7992 98.2V91H123.199V98.2H90.7992ZM141.892 187.72C137.332 187.36 134.032 185.94 131.992 183.46C129.952 180.98 128.832 177.16 128.632 172C128.592 169.52 128.572 167.26 128.572 165.22C128.572 163.18 128.592 161.14 128.632 159.1C128.672 157.02 128.732 154.74 128.812 152.26H136.432C136.272 155.82 136.192 159.36 136.192 162.88C136.192 166.4 136.272 169.84 136.432 173.2C136.512 175.48 136.972 177.24 137.812 178.48C138.692 179.72 140.052 180.5 141.892 180.82V187.72ZM147.172 187.66V180.76C148.852 180.4 150.072 179.6 150.832 178.36C151.592 177.12 152.032 175.4 152.152 173.2C152.272 170.96 152.352 168.96 152.392 167.2C152.432 165.4 152.432 163.58 152.392 161.74C152.352 159.86 152.272 157.66 152.152 155.14C152.072 152.18 151.652 149.7 150.892 147.7C150.172 145.66 148.652 144.34 146.332 143.74L140.092 142.12C137.012 141.36 134.652 140.22 133.012 138.7C131.372 137.14 130.232 135.1 129.592 132.58C128.992 130.06 128.632 126.96 128.512 123.28C128.472 120.68 128.452 117.84 128.452 114.76C128.492 111.68 128.532 108.7 128.572 105.82C128.692 100.7 129.752 96.92 131.752 94.48C133.752 92.04 137.112 90.64 141.832 90.28V97.18C140.032 97.5 138.732 98.28 137.932 99.52C137.132 100.76 136.672 102.5 136.552 104.74C136.392 107.78 136.312 110.86 136.312 113.98C136.352 117.06 136.432 120.16 136.552 123.28C136.632 126.84 137.052 129.52 137.812 131.32C138.572 133.12 140.152 134.3 142.552 134.86L148.432 136.3C151.592 137.02 153.992 138.18 155.632 139.78C157.312 141.38 158.472 143.46 159.112 146.02C159.752 148.54 160.112 151.58 160.192 155.14C160.272 157.62 160.312 159.72 160.312 161.44C160.312 163.12 160.292 164.76 160.252 166.36C160.252 167.96 160.212 169.84 160.132 172C159.932 177.16 158.832 180.98 156.832 183.46C154.832 185.9 151.612 187.3 147.172 187.66ZM151.972 124.3C152.092 121.02 152.152 117.76 152.152 114.52C152.192 111.24 152.152 107.98 152.032 104.74C151.952 102.54 151.512 100.84 150.712 99.64C149.952 98.4 148.732 97.6 147.052 97.24V90.34C151.372 90.7 154.512 92.1 156.472 94.54C158.472 96.98 159.572 100.78 159.772 105.94C159.852 108.14 159.872 110.86 159.832 114.1C159.832 117.3 159.772 120.7 159.652 124.3H151.972Z" fill="black"/>
<rect x="0.5" y="66.5" width="191" height="149" stroke="black"/>
<rect x="212.5" y="215.5" width="149" height="117" transform="rotate(-90 212.5 215.5)" fill="white"/>
<path d="M301 184.609L238.6 177.706V166.474L243.982 165.85V173.182L265.237 174.742L278.146 176.146V170.101L283.528 171.544V176.536L301 178.486V184.609ZM301 165.811L265.159 169.399L246.556 170.725V165.694L301 159.688V165.811ZM301 139.966L278.848 143.437L243.943 147.844V154.084H238.6V143.71L258.373 140.668L295.618 135.442V129.28H301V139.966ZM301 154.084H246.79V149.482L278.419 148.702L301 148.273V154.084ZM292.693 133.921L259.465 134.818L238.6 135.13V129.28H292.693V133.921ZM301 121.254H238.6V115.287H301V121.254ZM301 111.816H295.618V110.607C295.618 108.839 295.202 107.552 294.37 106.746C293.538 105.914 292.238 105.485 290.47 105.459C287.012 105.407 283.567 105.368 280.135 105.342C276.677 105.29 273.232 105.264 269.8 105.264C266.342 105.264 262.884 105.29 259.426 105.342C255.968 105.368 252.51 105.407 249.052 105.459C247.31 105.485 246.036 105.914 245.23 106.746C244.398 107.552 243.982 108.826 243.982 110.568V111.816H238.6V110.568C238.6 106.668 239.458 103.86 241.174 102.144C242.89 100.428 245.724 99.5305 249.676 99.4525C254.46 99.3745 259.01 99.3225 263.326 99.2965C267.642 99.2705 271.958 99.2705 276.274 99.2965C280.564 99.3225 285.101 99.3745 289.885 99.4525C293.837 99.5305 296.684 100.441 298.426 102.183C300.142 103.899 301 106.707 301 110.607V111.816Z" fill="black"/>
<rect x="212.5" y="215.5" width="149" height="117" transform="rotate(-90 212.5 215.5)" stroke="black"/>
<rect x="350.5" y="66.5" width="249" height="149" fill="white"/>
<path d="M385.676 187V91H393.596V187H385.676ZM398.876 187V179.8H400.856C403.496 179.8 405.456 179.12 406.736 177.76C408.016 176.4 408.676 174.28 408.716 171.4C408.836 168 408.896 164.8 408.896 161.8C408.896 158.8 408.836 155.6 408.716 152.2C408.676 148.64 407.996 146.1 406.676 144.58C405.356 143.02 403.256 142.24 400.376 142.24H398.876V135.1H400.676C403.356 135.1 405.336 134.32 406.616 132.76C407.896 131.2 408.576 128.8 408.656 125.56C408.776 122.12 408.836 118.88 408.836 115.84C408.836 112.8 408.776 109.58 408.656 106.18C408.576 103.42 407.896 101.4 406.616 100.12C405.336 98.84 403.396 98.2 400.796 98.2H398.876V91H400.796C406.236 91 410.216 92.2 412.736 94.6C415.256 97 416.536 100.98 416.576 106.54C416.656 110.54 416.696 114.04 416.696 117.04C416.696 120.04 416.656 122.92 416.576 125.68C416.456 129.04 415.816 131.66 414.656 133.54C413.536 135.42 411.776 136.8 409.376 137.68V139.9C411.856 140.7 413.676 142.06 414.836 143.98C415.996 145.9 416.616 148.54 416.696 151.9C416.776 155.42 416.816 158.68 416.816 161.68C416.816 164.68 416.776 167.94 416.696 171.46C416.496 176.98 415.156 180.96 412.676 183.4C410.236 185.8 406.296 187 400.856 187H398.876ZM434.992 187V161.92V161.8L421.972 91H430.132L434.452 118.12L438.532 145.54H446.152L443.032 161.8V161.92V187H434.992ZM441.292 141.58L444.712 118.12L449.032 91H457.312L447.772 141.7L441.292 141.58ZM472.664 187V101.86H480.644V187H472.664ZM460.424 98.2V91H492.824V98.2H460.424ZM499.817 187V91H507.737V187H499.817ZM512.957 187V179.8H526.877V187H512.957ZM512.957 142.24V135.1H525.677V142.24H512.957ZM512.957 98.2V91H526.877V98.2H512.957ZM547.728 187.72C543.168 187.36 539.868 185.94 537.828 183.46C535.788 180.98 534.668 177.16 534.468 172C534.428 169.52 534.408 167.26 534.408 165.22C534.408 163.18 534.428 161.14 534.468 159.1C534.508 157.02 534.568 154.74 534.648 152.26H542.268C542.108 155.82 542.028 159.36 542.028 162.88C542.028 166.4 542.108 169.84 542.268 173.2C542.348 175.48 542.808 177.24 543.648 178.48C544.528 179.72 545.888 180.5 547.728 180.82V187.72ZM553.008 187.66V180.76C554.688 180.4 555.908 179.6 556.668 178.36C557.428 177.12 557.868 175.4 557.988 173.2C558.108 170.96 558.188 168.96 558.228 167.2C558.268 165.4 558.268 163.58 558.228 161.74C558.188 159.86 558.108 157.66 557.988 155.14C557.908 152.18 557.488 149.7 556.728 147.7C556.008 145.66 554.488 144.34 552.168 143.74L545.928 142.12C542.848 141.36 540.488 140.22 538.848 138.7C537.208 137.14 536.068 135.1 535.428 132.58C534.828 130.06 534.468 126.96 534.348 123.28C534.308 120.68 534.288 117.84 534.288 114.76C534.328 111.68 534.368 108.7 534.408 105.82C534.528 100.7 535.588 96.92 537.588 94.48C539.588 92.04 542.948 90.64 547.668 90.28V97.18C545.868 97.5 544.568 98.28 543.768 99.52C542.968 100.76 542.508 102.5 542.388 104.74C542.228 107.78 542.148 110.86 542.148 113.98C542.188 117.06 542.268 120.16 542.388 123.28C542.468 126.84 542.888 129.52 543.648 131.32C544.408 133.12 545.988 134.3 548.388 134.86L554.268 136.3C557.428 137.02 559.828 138.18 561.468 139.78C563.148 141.38 564.308 143.46 564.948 146.02C565.588 148.54 565.948 151.58 566.028 155.14C566.108 157.62 566.148 159.72 566.148 161.44C566.148 163.12 566.128 164.76 566.088 166.36C566.088 167.96 566.048 169.84 565.968 172C565.768 177.16 564.668 180.98 562.668 183.46C560.668 185.9 557.448 187.3 553.008 187.66ZM557.808 124.3C557.928 121.02 557.988 117.76 557.988 114.52C558.028 111.24 557.988 107.98 557.868 104.74C557.788 102.54 557.348 100.84 556.548 99.64C555.788 98.4 554.568 97.6 552.888 97.24V90.34C557.208 90.7 560.348 92.1 562.308 94.54C564.308 96.98 565.408 100.78 565.608 105.94C565.688 108.14 565.708 110.86 565.668 114.1C565.668 117.3 565.608 120.7 565.488 124.3H557.808Z" fill="black"/>
<rect x="350.5" y="66.5" width="249" height="149" stroke="black"/>
</svg>
